<svg xmlns="http://www.w3.org/2000/svg" viewBox="0 0 238.09 240"><defs><style>.cls-1{fill:#ec3b3b;}.cls-2{fill:#bf3232;}.cls-3{fill:#f7eee9;}</style></defs><title>email button</title><g id="Layer_2" data-name="Layer 2"><g id="Layer_1-2" data-name="Layer 1"><circle class="cls-1" cx="119.05" cy="119" r="119"/><path class="cls-2" d="M238,119a117.34,117.34,0,0,1-8.15,45.92,119.13,119.13,0,0,1-64.59,65.78A119.44,119.44,0,0,1,33.8,204.25,118.71,118.71,0,0,1,8.19,164.92,117.33,117.33,0,0,1,0,119l.3,5.83c.17,1.94.39,3.87.58,5.8s.55,3.85.82,5.77.74,3.81,1.1,5.71A117.57,117.57,0,0,0,10,164.17a119.26,119.26,0,0,0,64.23,63,118.62,118.62,0,0,0,89.64,0,119.26,119.26,0,0,0,64.23-63,117.57,117.57,0,0,0,7.15-22.05c.36-1.9.79-3.8,1.1-5.71s.59-3.84.82-5.77.41-3.87.58-5.8Z"/><path class="cls-3" d="M176,63H62a17.51,17.51,0,0,0-17.5,17.5v79A17.51,17.51,0,0,0,62,177H176a17.51,17.51,0,0,0,17.5-17.5v-79A17.51,17.51,0,0,0,176,63Zm-26,57,34-34a.94.94,0,0,1,1.61.67v64.81a.94.94,0,0,1-1.59.68ZM62,70.9H176a9.52,9.52,0,0,1,3.22.56,4.08,4.08,0,0,1,1.42,6.72l-51.4,51.4a3.9,3.9,0,0,1-2.77,1.15H112.67a3.89,3.89,0,0,1-2.74-1.12L57.49,78.18a4.07,4.07,0,0,1,1.39-6.74A9.52,9.52,0,0,1,62,70.9ZM87.86,119,54,151a.94.94,0,0,1-1.59-.68V86.55a.94.94,0,0,1,1.6-.67ZM176,169.1H62a9.51,9.51,0,0,1-5.61-1.83,4.78,4.78,0,0,1-.35-7.3l37.43-35.4,10.89,10.68a11.82,11.82,0,0,0,8.27,3.38h13.84a11.82,11.82,0,0,0,8.36-3.46l9.59-9.59,36.8,34.81a4.8,4.8,0,0,1-1.2,7.83A9.5,9.5,0,0,1,176,169.1Z"/></g></g></svg>