<svg xmlns="http://www.w3.org/2000/svg" viewBox="0 0 741 686.7"><defs><style>.cls-1{fill:#2a2e3d;}.cls-2{fill:#ec3b3b;}.cls-3{fill:#adf0ce;}.cls-4{fill:#faf8f8;}.cls-5{fill:#23262e;}</style></defs><title>Meter w needle</title><g id="Layer_2" data-name="Layer 2"><g id="Layer_1-2" data-name="Layer 1"><rect class="cls-1" width="741" height="686.7"/><path class="cls-2" d="M438.7,163.79c115.7,30.68,193.86,76.6,206.53,84.32L619.6,288.85c-12.09-7.23-87.31-50.62-197.58-79.41l16.68-45.65m-1.25-2.4-18.06,49.43c120.38,31.1,199.72,80,200.86,80.76L648,247.47c-4.95-3.11-86.15-53.36-210.55-86.08Z"/><path class="cls-3" d="M224.87,208.44A752.86,752.86,0,0,0,0,242.72v20.89A732.38,732.38,0,0,1,225,228l5.29,0A779.37,779.37,0,0,1,392.5,246.45l6.87-18.82a807.33,807.33,0,0,0-168.94-19.18Z"/><path class="cls-2" d="M608.66,307.7c-4.34-2.76-77.65-48.69-196.5-77.1L405.3,249.4c118.24,28.14,191.82,74.13,192.86,74.78Z"/><path class="cls-1" d="M419.39,210.83c-4.18-1.08-8.44-2.12-12.72-3.15l-7.29,20c4.33,1,8.57,2,12.78,3Z"/><path class="cls-3" d="M424.76,158.15a845,845,0,0,0-131.07-21.7l-5.2,51.9a789.58,789.58,0,0,1,118.18,19.31Z"/><path class="cls-3" d="M280.71,135.39c-14.57-1-29.46-1.55-44.57-1.73v52.12c13.31.17,26.46.65,39.36,1.52Z"/><polygon class="cls-4" points="492.64 118.01 486.67 115.42 238.56 686.7 245.66 686.7 492.64 118.01"/><polygon class="cls-5" points="0 13.03 727.97 13.03 727.97 673.67 0 673.67 0 686.7 741 686.7 741 0 0 0 0 13.03"/><path class="cls-3" d="M134.25,139l.1.54-13,1-.51.07A850.66,850.66,0,0,0,0,165.62v54.73a804.68,804.68,0,0,1,130.48-28.27l12.95-1.61a751.9,751.9,0,0,1,79.69-4.75V133.6A815.56,815.56,0,0,0,134.25,139Z"/></g></g></svg>