<svg xmlns="http://www.w3.org/2000/svg" viewBox="0 0 1023.2 43.1"><defs><style>.cls-1{fill:#23262e;}</style></defs><title>Subtitle</title><g id="Layer_2" data-name="Layer 2"><g id="Layer_1-2" data-name="Layer 1"><path class="cls-1" d="M22.79,1l16.6,41.19H33.14L28.5,29.77h-18L5.77,42.17H0L16.54,1Zm3.93,24.17L19.63,5.94h-.12l-7.2,19.21Z"/><path class="cls-1" d="M75.5,39.14q-4.34,4-12.38,4-8.21,0-12.82-3.78t-4.61-12V1h5.65V27.29q0,5.54,3,8.39t8.75,2.86q5.41,0,8.24-2.86t2.83-8.39V1h5.65V27.29Q79.85,35.19,75.5,39.14Z"/><path class="cls-1" d="M105.85,1Q115.67,1,121,5.83t5.3,14.77a32.38,32.38,0,0,1-1.19,9.2,17,17,0,0,1-3.69,6.75A16,16,0,0,1,115,40.73a26.22,26.22,0,0,1-9.16,1.44H91.27V1Zm.48,36.58q1,0,2.38-.14a13.69,13.69,0,0,0,3-.69,14,14,0,0,0,3.18-1.59,10.57,10.57,0,0,0,2.83-2.83,15.57,15.57,0,0,0,2.05-4.47,22.83,22.83,0,0,0,.8-6.49,26.76,26.76,0,0,0-.74-6.61,12.52,12.52,0,0,0-2.44-5A10.71,10.71,0,0,0,113,6.66a17.92,17.92,0,0,0-6.6-1.07H96.92v32Z"/><path class="cls-1" d="M142,1V42.17h-5.65V1Z"/><path class="cls-1" d="M153.42,13.47a20.23,20.23,0,0,1,3.84-6.89,18.66,18.66,0,0,1,6.37-4.79,22.87,22.87,0,0,1,17.73,0,18.68,18.68,0,0,1,6.37,4.79,20.25,20.25,0,0,1,3.84,6.89,26.3,26.3,0,0,1,0,16.21,20.26,20.26,0,0,1-3.84,6.89,18.35,18.35,0,0,1-6.37,4.76,23.21,23.21,0,0,1-17.73,0,18.33,18.33,0,0,1-6.37-4.76,20.23,20.23,0,0,1-3.84-6.89,26.32,26.32,0,0,1,0-16.21Zm5.21,14.25a16.46,16.46,0,0,0,2.62,5.45,13.27,13.27,0,0,0,4.58,3.89,15.83,15.83,0,0,0,13.33,0,13.27,13.27,0,0,0,4.58-3.89,16.48,16.48,0,0,0,2.62-5.45,23,23,0,0,0,0-12.29A16.47,16.47,0,0,0,183.73,10a13.26,13.26,0,0,0-4.58-3.89,15.83,15.83,0,0,0-13.33,0A13.26,13.26,0,0,0,161.24,10a16.45,16.45,0,0,0-2.62,5.45,23.07,23.07,0,0,0,0,12.29Z"/><path class="cls-1" d="M250.37,1V5.6H226.69v13.1h22.07v4.61H226.69V37.56h23.86v4.62H221V1Z"/><path class="cls-1" d="M266.32,1l22.37,33.4h.12V1h5.36V42.17H288L265.78,9.12h-.12V42.17h-5.35V1Z"/><path class="cls-1" d="M331.29,41.68a20.65,20.65,0,0,1-7.44,1.41,20.37,20.37,0,0,1-8.51-1.7A19.16,19.16,0,0,1,309,36.81a19.9,19.9,0,0,1-4-6.63,22.53,22.53,0,0,1-1.37-7.79,28.36,28.36,0,0,1,1.28-8.57,20.87,20.87,0,0,1,3.81-7.13A18.43,18.43,0,0,1,315,1.82,20.17,20.17,0,0,1,323.85,0a26.42,26.42,0,0,1,6.52.78,16.74,16.74,0,0,1,5.47,2.45,14.74,14.74,0,0,1,4,4.24,16.34,16.34,0,0,1,2.23,6.2h-5.65a10.59,10.59,0,0,0-1.55-4.07,9.82,9.82,0,0,0-2.8-2.8,12.59,12.59,0,0,0-3.78-1.64,17.82,17.82,0,0,0-4.49-.55,13.73,13.73,0,0,0-6.63,1.5,13.21,13.21,0,0,0-4.52,4,17,17,0,0,0-2.59,5.6,25,25,0,0,0-.83,6.43,20.18,20.18,0,0,0,1,6.2,16,16,0,0,0,2.8,5.25,13.59,13.59,0,0,0,4.55,3.63,13.83,13.83,0,0,0,6.28,1.36,15.57,15.57,0,0,0,5.89-1,12.37,12.37,0,0,0,4.31-2.86,12,12,0,0,0,2.65-4.27,13.62,13.62,0,0,0,.77-5.28H323.91V20.48h18.62V42.17H339L337.48,37A14.07,14.07,0,0,1,331.29,41.68Z"/><path class="cls-1" d="M359.73,1V42.17h-5.65V1Z"/><path class="cls-1" d="M378.17,1l22.37,33.4h.12V1H406V42.17h-6.19L377.64,9.12h-.12V42.17h-5.35V1Z"/><path class="cls-1" d="M447.49,1V5.6H423.81v13.1h22.07v4.61H423.81V37.56h23.86v4.62H418.16V1Z"/><path class="cls-1" d="M486.82,1V5.6H463.14v13.1h22.07v4.61H463.14V37.56H487v4.62H457.48V1Z"/><path class="cls-1" d="M516.8,1q6.07,0,9.49,2.88a9.79,9.79,0,0,1,3.42,7.9A12.21,12.21,0,0,1,528,18.35a9,9,0,0,1-5.62,3.86v.12a7.71,7.71,0,0,1,3,1.15,6.41,6.41,0,0,1,1.84,1.93,8.61,8.61,0,0,1,1,2.51,25.75,25.75,0,0,1,.5,2.88q.12,1.5.18,3.06a25.69,25.69,0,0,0,.3,3.06,18.19,18.19,0,0,0,.68,2.86,7,7,0,0,0,1.34,2.39H524.9a3.38,3.38,0,0,1-.8-1.73,17.05,17.05,0,0,1-.27-2.45q-.06-1.36-.12-2.91a19.67,19.67,0,0,0-.36-3.06q-.24-1.5-.6-2.86a6.61,6.61,0,0,0-1.13-2.37,5.54,5.54,0,0,0-2-1.62,7.72,7.72,0,0,0-3.33-.61h-13.8v17.6h-5.65V1ZM518,19.67a8.32,8.32,0,0,0,3.12-1.12,6.24,6.24,0,0,0,2.14-2.25,7.36,7.36,0,0,0,.8-3.66,7.25,7.25,0,0,0-1.79-5.08q-1.78-2-5.77-2h-14V20h11.78A23.34,23.34,0,0,0,518,19.67Z"/><path class="cls-1" d="M576.54,0,558.93,43.1h-4.28L572.2,0Z"/><path class="cls-1" d="M609.15,1,622.53,35.6,636,1h7.73V42.17h-5.36V7.9h-.12L625,42.17h-4.82L606.89,7.9h-.12V42.17h-5.35V1Z"/><path class="cls-1" d="M661.75,1V42.17h-5.65V1Z"/><path class="cls-1" d="M670.67,1h6.78L688,17.08,699.11,1h6.31l-14,20,14.93,21.17h-6.9L688,25.15l-11.78,17H669.9L684.65,21Z"/><path class="cls-1" d="M749.62,0,732,43.1h-4.28L745.28,0Z"/><path class="cls-1" d="M782.94,1,796.33,35.6,809.78,1h7.73V42.17h-5.36V7.9H812L798.77,42.17H794L780.68,7.9h-.12V42.17h-5.35V1Z"/><path class="cls-1" d="M847.68,1l16.6,41.19H858l-4.64-12.4h-18l-4.76,12.4h-5.77L841.43,1Zm3.93,24.17L844.52,5.94h-.12l-7.2,19.21Z"/><path class="cls-1" d="M892.69,6.61a12.26,12.26,0,0,0-7.23-2,17.74,17.74,0,0,0-3.51.35,9.5,9.5,0,0,0-3.06,1.15,6.14,6.14,0,0,0-2.14,2.16,6.53,6.53,0,0,0-.8,3.38,4.21,4.21,0,0,0,1.16,3.09,8.63,8.63,0,0,0,3.09,1.93,26.52,26.52,0,0,0,4.37,1.24q2.44.49,5,1.07t5,1.36a16.61,16.61,0,0,1,4.37,2.11A10.15,10.15,0,0,1,902,25.79a10.08,10.08,0,0,1,1.16,5.08,10.1,10.1,0,0,1-1.52,5.62,12.3,12.3,0,0,1-3.9,3.81,17.25,17.25,0,0,1-5.32,2.13,26.6,26.6,0,0,1-5.86.66,25.6,25.6,0,0,1-6.75-.87,16.87,16.87,0,0,1-5.59-2.62,12.52,12.52,0,0,1-3.81-4.5,14.12,14.12,0,0,1-1.4-6.49h5.36a9.07,9.07,0,0,0,1,4.47,9.27,9.27,0,0,0,2.74,3.09,11.71,11.71,0,0,0,4,1.79,18.72,18.72,0,0,0,4.64.58,21.79,21.79,0,0,0,3.84-.35A11.53,11.53,0,0,0,894,37a6.84,6.84,0,0,0,2.5-2.28,6.58,6.58,0,0,0,1-3.69,5.07,5.07,0,0,0-1.16-3.46,8.54,8.54,0,0,0-3.09-2.16,23.12,23.12,0,0,0-4.37-1.36l-5-1.07q-2.53-.55-5-1.27a18.2,18.2,0,0,1-4.37-1.9,9.24,9.24,0,0,1-3.09-3.06,8.79,8.79,0,0,1-1.16-4.7,10.65,10.65,0,0,1,1.31-5.39,11.21,11.21,0,0,1,3.48-3.75A15.87,15.87,0,0,1,880,.72,22.45,22.45,0,0,1,885.7,0a23.42,23.42,0,0,1,6.07.75,14,14,0,0,1,4.91,2.37A11.5,11.5,0,0,1,900,7.18,14.18,14.18,0,0,1,901.35,13H896Q895.51,8.6,892.69,6.61Z"/><path class="cls-1" d="M907.83,5.6V1h34V5.6H927.64V42.17H922V5.6Z"/><path class="cls-1" d="M978.81,1V5.6H955.13v13.1h22.07v4.61H955.13V37.56H979v4.62H949.48V1Z"/><path class="cls-1" d="M1008.8,1q6.07,0,9.49,2.88a9.79,9.79,0,0,1,3.42,7.9,12.21,12.21,0,0,1-1.76,6.58,9,9,0,0,1-5.62,3.86v.12a7.71,7.71,0,0,1,3,1.15,6.41,6.41,0,0,1,1.84,1.93,8.61,8.61,0,0,1,1,2.51,25.75,25.75,0,0,1,.5,2.88q.12,1.5.18,3.06a25.69,25.69,0,0,0,.3,3.06,18.19,18.19,0,0,0,.68,2.86,7,7,0,0,0,1.34,2.39h-6.31a3.38,3.38,0,0,1-.8-1.73,17.05,17.05,0,0,1-.27-2.45q-.06-1.36-.12-2.91a19.67,19.67,0,0,0-.36-3.06q-.24-1.5-.6-2.86a6.61,6.61,0,0,0-1.13-2.37,5.54,5.54,0,0,0-2-1.62,7.72,7.72,0,0,0-3.33-.61h-13.8v17.6h-5.65V1ZM1010,19.67a8.32,8.32,0,0,0,3.12-1.12,6.24,6.24,0,0,0,2.14-2.25,7.36,7.36,0,0,0,.8-3.66,7.25,7.25,0,0,0-1.79-5.08q-1.78-2-5.77-2h-14V20h11.78A23.34,23.34,0,0,0,1010,19.67Z"/></g></g></svg>