<svg xmlns="http://www.w3.org/2000/svg" viewBox="0 0 1022.99 146"><defs><style>.cls-1{fill:#23262e;}</style></defs><title>Title</title><g id="Layer_2" data-name="Layer 2"><g id="Layer_1-2" data-name="Layer 1"><path class="cls-1" d="M31.4,0V116.4H101v26.4H0V0Z"/><path class="cls-1" d="M223.6,131.9Q207.4,146,178.8,146q-29,0-44.9-14T118,88.8V0h31.4V88.8a64.56,64.56,0,0,0,1,11.4,22.17,22.17,0,0,0,13.1,16.9q5.7,2.7,15.3,2.7,16.8,0,23.2-7.5t6.4-23.5V0h31.4V88.8Q239.8,117.8,223.6,131.9Z"/><path class="cls-1" d="M298.2,0V59.2L354,0h39.2L337.4,56.4l61.2,86.4H359.2l-43-64.2-18,18.2v46H266.8V0Z"/><path class="cls-1" d="M518,0V26.4h-75.4V57h69.2V81.4h-69.2v35h77v26.4H411.19V0Z"/><path class="cls-1" d="M696.79,0V26.4h-69v33h59.8V83.8h-59.8v59h-31.4V0Z"/><path class="cls-1" d="M775.19,0l53.4,142.8H796L785.19,111h-53.4l-11.2,31.8H689L743,0ZM777,87.6,759,35.2h-.4L740,87.6Z"/><path class="cls-1" d="M872.39,0V142.8H841V0Z"/><path class="cls-1" d="M977,0a46,46,0,0,1,17.3,3.1,39.9,39.9,0,0,1,13.2,8.5,37,37,0,0,1,8.4,12.5,40.13,40.13,0,0,1,2.9,15.3q0,12.6-5.3,21.8t-17.3,14v.4a24.26,24.26,0,0,1,9.6,4.9,27.19,27.19,0,0,1,6.2,7.8,36.33,36.33,0,0,1,3.5,9.9A86.52,86.52,0,0,1,1017,109q.2,3.4.4,8t.7,9.4a62.59,62.59,0,0,0,1.6,9.1,20.93,20.93,0,0,0,3.3,7.3h-31.4a55.28,55.28,0,0,1-3.2-16.2q-.6-9.4-1.8-18-1.6-11.2-6.8-16.4t-17-5.2h-31.4v55.8H900V0Zm-11.2,64.6q10.8,0,16.2-4.8t5.4-15.6q0-10.4-5.4-15.1t-16.2-4.7h-34.4V64.6Z"/></g></g></svg>